<svg xmlns="http://www.w3.org/2000/svg" viewBox="0 0 47.2 42.59"><defs><style>.cls-1,.cls-2,.cls-3{fill:none;stroke:#fff;stroke-miterlimit:10;}.cls-1{stroke-width:1.33px;}.cls-3{stroke-width:2px;}</style></defs><title>Care Team</title><g id="Layer_2" data-name="Layer 2"><g id="Layer_1-2" data-name="Layer 1"><path class="cls-1" d="M8,3.32a2,2,0,0,1-2,2H6a2,2,0,0,1-2-2H4a2,2,0,0,1,2-2H6a2,2,0,0,1,2,2Z"/><path class="cls-1" d="M.66,15.45c0-5,2-9.07,4.54-9.07s4.54,4.06,4.54,9.07"/><rect class="cls-2" x="40.16" y="5.16" width="4" height="4" rx="1.99" ry="1.99"/><path class="cls-1" d="M37.46,19.06c0-5,2-9.07,4.54-9.07s4.54,4.06,4.54,9.07"/><path class="cls-1" d="M27.89,31.21a2,2,0,0,1-2,2h0a2,2,0,0,1-2-2h0a2,2,0,0,1,2-2h0a2,2,0,0,1,2,2Z"/><path class="cls-1" d="M21.17,42.59c0-5,2-9.07,4.54-9.07s4.54,4.06,4.54,9.07"/><path class="cls-1" d="M8.64,6.42A19.31,19.31,0,0,1,38.72,9.66"/><path class="cls-1" d="M3.45,16.17a19.32,19.32,0,0,0,17.12,23"/><path class="cls-1" d="M41.62,21.83A19.33,19.33,0,0,1,30.05,37.71"/><line class="cls-3" x1="22.66" y1="10.66" x2="22.66" y2="24.66"/><line class="cls-3" x1="28.66" y1="15.66" x2="16.66" y2="15.66"/></g></g></svg>