<svg xmlns="http://www.w3.org/2000/svg" viewBox="0 0 53.11 52.17"><defs><style>.cls-1{fill:none;stroke:#fff;stroke-miterlimit:10;}</style></defs><title>communities</title><g id="Layer_2" data-name="Layer 2"><g id="Layer_1-2" data-name="Layer 1"><path class="cls-1" d="M9.73,7.15a22.29,22.29,0,0,1,34.72,3.74"/><path class="cls-1" d="M3.75,18.4A22.3,22.3,0,0,0,23.52,45"/><path class="cls-1" d="M47.81,24.94A22.31,22.31,0,0,1,34.46,43.27"/><path class="cls-1" d="M9.73,7.15A6.77,6.77,0,0,0,7.07,6.6,6.46,6.46,0,0,0,.5,12.94,6.29,6.29,0,0,0,3.75,18.4"/><path class="cls-1" d="M3.75,18.4a6.72,6.72,0,0,0,3.32.88,6.46,6.46,0,0,0,6.57-6.34A6.33,6.33,0,0,0,9.73,7.15"/><path class="cls-1" d="M23.52,45c0,.11,0,.22,0,.34,0,3.5,2.52,6.34,5.63,6.34s5.63-2.84,5.63-6.34a7,7,0,0,0-.31-2.06"/><path class="cls-1" d="M23.52,45c.16-3.34,2.61-6,5.62-6a5.73,5.73,0,0,1,5.32,4.28"/><path class="cls-1" d="M44.46,10.88a7.27,7.27,0,1,0,3.35,14.05"/><path class="cls-1" d="M44.46,10.88a7.54,7.54,0,0,1,.87-.06,7.27,7.27,0,0,1,2.48,14.11"/></g></g></svg>