<svg xmlns="http://www.w3.org/2000/svg" viewBox="0 0 50 46.36"><defs><style>.cls-1{fill:none;stroke:#fff;stroke-miterlimit:10;}</style></defs><title>Family</title><g id="Layer_2" data-name="Layer 2"><g id="Layer_1-2" data-name="Layer 1"><path class="cls-1" d="M22.92,15.84A8.07,8.07,0,0,0,19.28,4.94"/><path class="cls-1" d="M22.92,15.84A8.1,8.1,0,1,1,19.28,4.94"/><path class="cls-1" d="M18.12,21a10.36,10.36,0,0,0-2.34-.27C7.34,20.74.5,31.11.5,43.9"/><path class="cls-1" d="M29.37,33.3C27.17,26.84,23,22.15,18.12,21"/><path class="cls-1" d="M22.92,15.84A8.09,8.09,0,1,0,19.28,4.94"/><path class="cls-1" d="M32,18.64a10.8,10.8,0,0,0-5.4-1.49A11.92,11.92,0,0,0,18.12,21"/><path class="cls-1" d="M39.38,27.67q.2.47.39.95"/><path class="cls-1" d="M32,18.64a6.31,6.31,0,1,1,7.41,9"/><path class="cls-1" d="M32,18.64a6.31,6.31,0,0,0,7.41,9"/><path class="cls-1" d="M49.5,46.36c0-8.84-4.2-16.19-9.73-17.74"/><path class="cls-1" d="M29.37,33.3a23.2,23.2,0,0,0-3.7,13.06"/><path class="cls-1" d="M39.77,28.62a8.09,8.09,0,0,0-2.18-.31c-3.19,0-6.08,1.9-8.22,5"/></g></g></svg>