<svg xmlns="http://www.w3.org/2000/svg" viewBox="0 0 52.31 34.98"><defs><style>.cls-1{fill:none;stroke:#fff;stroke-miterlimit:10;stroke-width:0.5px;fill-rule:evenodd;}</style></defs><title>knowledge Base</title><g id="Layer_2" data-name="Layer 2"><g id="Layer_1-2" data-name="Layer 1"><path class="cls-1" d="M44.64.72a20.08,20.08,0,0,0-10.44.48,13.28,13.28,0,0,0-7.54,6.34,3.37,3.37,0,0,0-.38,1.51q0,11.64,0,23.29c0,.21,0,.41.06.73,5.49-7.55,12.09-10.61,20.09-8.61ZM26,33.07c0-.28,0-.42,0-.55q0-11.9,0-23.8a2.66,2.66,0,0,0-.33-1.19,12.88,12.88,0,0,0-4.17-4.61C17.22,0,12.67-.12,8,.65c-.16,0-.38.39-.4.61-.17,2-.3,4-.46,6.07q-.45,5.94-.91,11.88c-.13,1.73-.25,3.46-.38,5.24C13.88,22.47,20.46,25.53,26,33.07ZM48.4,27.16c-.2-2.73-.39-5.41-.59-8.1-.35-4.66-.71-9.31-1-14-.11-1.46-.08-1.46-1.21-1.83l-.47-.16,1.65,21.83a15.67,15.67,0,0,0-10.48.27c-3.28,1.25-7.82,4.88-8.7,6.93C34,27.19,40.7,24.12,48.4,27.16ZM7.22,3.13l-.6.17A1.32,1.32,0,0,0,5.54,4.83c0,.87-.1,1.74-.17,2.6q-.45,6.07-.91,12.15c-.19,2.51-.36,5-.55,7.59,7.66-3,14.35,0,20.79,4.85-3.76-5.13-10.47-9.64-19.12-7.12ZM.91,32.52A17.41,17.41,0,0,1,8.48,30.7a64.44,64.44,0,0,1,7.73.39c2.5.31,5,1,7.46,1.46C16.81,29.21,9.8,27.83,2.41,30L4,8.35c-.57.51-1.39.2-1.47,1.31-.12,1.47-.2,3-.31,4.43q-.46,6.56-.92,13.11C1.15,28.93,1,30.67.91,32.52ZM48.34,8.45,49.89,30c-8.36-2.47-16.89.13-21.69,2.8,7.73-1.93,15.4-3.54,23.15-.33,0-.19,0-.33,0-.47q-.44-6.56-.89-13.11c-.21-3.07-.43-6.13-.67-9.2a1.11,1.11,0,0,0-.36-.7A5.34,5.34,0,0,0,48.34,8.45Zm.35,19.24a14.68,14.68,0,0,0-7.29-1.4,19.34,19.34,0,0,0-7.06,1.91c-2.54,1.19-5.65,3.22-6.43,4.22,7-3.43,14.19-4.92,21.68-2.89-.09-1.39-.16-2.61-.25-3.82C48.89,19.49,48.43,13.27,48,7c-.05-.76-.32-1-.92-1.15ZM24.37,32.33c-6.39-5-13.09-7.93-20.76-4.71L5.23,5.87A1,1,0,0,0,4.31,7c-.08,1.54-.21,3.07-.33,4.6Q3.53,18,3.07,24.29c-.12,1.73-.24,3.45-.36,5.28a25.33,25.33,0,0,1,11-.63A38.77,38.77,0,0,1,24.37,32.33ZM.28,34.61C8,31.87,15.79,32.43,23.58,33,16,31.1,8.34,29.47.64,32.94c.06-1.12.12-2.16.18-3.19H.71Zm28.37-1.69c7.83-.5,15.64-1.06,23.37,1.68l-.48-5.37h-.09L51.66,33l-.37-.14A18.65,18.65,0,0,0,44.16,31a37.09,37.09,0,0,0-9.37.58C32.74,31.95,30.7,32.47,28.65,32.92Z"/><path class="cls-1" d="M44.64.72l1.8,23.74c-8-2-14.6,1.06-20.09,8.61,0-.32-.06-.52-.06-.73q0-11.64,0-23.29a3.37,3.37,0,0,1,.38-1.51A13.28,13.28,0,0,1,34.21,1.2,20.08,20.08,0,0,1,44.64.72Z"/><path class="cls-1" d="M26,33.07c-5.5-7.53-12.08-10.6-20.09-8.61.13-1.78.25-3.51.38-5.24q.45-5.94.91-11.88c.15-2,.28-4.05.46-6.07,0-.23.25-.59.4-.61,4.64-.77,9.2-.61,13.45,2.26a12.88,12.88,0,0,1,4.17,4.61A2.66,2.66,0,0,1,26,8.71q0,11.9,0,23.8C26,32.65,26,32.79,26,33.07Z"/><path class="cls-1" d="M48.4,27.16c-7.7-3-14.43,0-20.85,5,.88-2,5.42-5.68,8.7-6.93a15.67,15.67,0,0,1,10.48-.27L45.08,3.11l.47.16c1.14.38,1.11.38,1.21,1.84.34,4.66.7,9.31,1,14C48,21.75,48.2,24.44,48.4,27.16Z"/><path class="cls-1" d="M7.22,3.13,5.58,24.9c8.65-2.53,15.36,2,19.12,7.12-6.44-4.85-13.13-7.9-20.79-4.85.19-2.57.36-5.08.55-7.59q.45-6.07.91-12.15c.06-.87.18-1.74.17-2.6A1.32,1.32,0,0,1,6.62,3.3Z"/><path class="cls-1" d="M.91,32.52c.12-1.86.23-3.59.36-5.32q.46-6.56.92-13.11c.1-1.48.19-3,.31-4.43.09-1.11.91-.8,1.47-1.31L2.41,30c7.38-2.14,14.4-.76,21.26,2.58-2.49-.5-5-1.15-7.46-1.46a64.44,64.44,0,0,0-7.73-.39A17.41,17.41,0,0,0,.91,32.52Z"/><path class="cls-1" d="M48.34,8.45a5.34,5.34,0,0,1,1.08.49,1.11,1.11,0,0,1,.36.7c.24,3.06.46,6.13.67,9.2q.45,6.55.89,13.11c0,.14,0,.28,0,.47-7.75-3.21-15.42-1.6-23.15.33C33,30.08,41.53,27.48,49.89,30Z"/><path class="cls-1" d="M48.69,27.69,47.08,5.9c.6.11.87.39.92,1.15.43,6.22.89,12.44,1.34,18.67.09,1.21.16,2.43.25,3.82-7.49-2-14.65-.54-21.68,2.89.78-1,3.89-3,6.43-4.22a19.34,19.34,0,0,1,7.06-1.91A14.68,14.68,0,0,1,48.69,27.69Z"/><path class="cls-1" d="M24.37,32.33a38.77,38.77,0,0,0-10.65-3.39,25.33,25.33,0,0,0-11,.63c.13-1.83.24-3.55.36-5.28Q3.52,18,4,11.62c.11-1.53.25-3.06.33-4.6a1,1,0,0,1,.91-1.16L3.62,27.62C11.28,24.41,18,27.34,24.37,32.33Z"/><path class="cls-1" d="M.28,34.61l.43-4.87h.1c-.06,1-.11,2.06-.18,3.19C8.34,29.47,16,31.1,23.58,33,15.79,32.43,8,31.87.28,34.61Z"/><path class="cls-1" d="M28.65,32.92c2-.45,4.09-1,6.14-1.34A37.09,37.09,0,0,1,44.16,31a18.65,18.65,0,0,1,7.13,1.84l.37.14-.21-3.75h.09L52,34.61C44.29,31.87,36.49,32.43,28.65,32.92Z"/></g></g></svg>