<svg xmlns="http://www.w3.org/2000/svg" viewBox="0 0 49.71 49.89"><defs><style>.cls-1,.cls-2{fill:none;stroke:#dfeaef;stroke-miterlimit:10;}.cls-1{stroke-width:1.69px;}.cls-2{stroke-width:2px;}.cls-3{fill:#f2904c;}</style></defs><title>drmessage</title><g id="Layer_2" data-name="Layer 2"><g id="DASHBOARD"><polygon class="cls-1" points="40.37 37.03 16.25 37.03 8.11 47.43 8.11 37.03 0.85 37.03 0.85 8.5 40.37 8.5 40.37 37.03"/><line class="cls-2" x1="3.03" y1="15.43" x2="36.03" y2="15.43"/><line class="cls-2" x1="3.03" y1="19.43" x2="28.03" y2="19.43"/><line class="cls-2" x1="3.03" y1="23.43" x2="35.03" y2="23.43"/><line class="cls-2" x1="3.03" y1="27.43" x2="36.03" y2="27.43"/><line class="cls-2" x1="3.03" y1="31.43" x2="20.03" y2="31.43"/><path class="cls-3" d="M47.47,2.12c2.77,2.83,3.21,8,0,10.25-4.15,3-3.15,5.69-5,5.75s-1.06-2.78-5-5.75C34.29,10,34.67,5,37.44,2.13A7,7,0,0,1,47.47,2.12Z"/></g></g></svg>