<svg xmlns="http://www.w3.org/2000/svg" viewBox="0 0 48.25 47.21"><defs><style>.cls-1,.cls-2,.cls-3{fill:none;stroke:#fff;stroke-miterlimit:10;}.cls-1{stroke-width:0.81px;}.cls-2{stroke-width:1.03px;}.cls-3{stroke-width:1.21px;}.cls-4{fill:#fff;}</style></defs><title>Refer someone</title><g id="Layer_2" data-name="Layer 2"><g id="Layer_1-2" data-name="Layer 1"><path class="cls-1" d="M29.27,27.94"/><path class="cls-2" d="M23.77,11.61a6.63,6.63,0,0,1,5.8-3.34,6.49,6.49,0,0,1,6.6,6.37,6.4,6.4,0,0,1-4.65,6.08"/><path class="cls-2" d="M23.77,11.61a6.16,6.16,0,0,0-.79,3A6.49,6.49,0,0,0,29.58,21a6.81,6.81,0,0,0,1.94-.28"/><path class="cls-2" d="M42.1,39.59c0-8.92-4.39-16.34-10.18-17.9"/><path class="cls-2" d="M21.05,26.41a22.82,22.82,0,0,0-3.87,13.18"/><path class="cls-2" d="M31.92,21.68a8.75,8.75,0,0,0-2.28-.31c-3.33,0-6.36,1.92-8.59,5"/><path class="cls-3" d="M45.26,12.42A24,24,0,0,0,24.44.61C11.28.61.61,10.9.61,23.6s10.67,23,23.83,23a24.16,24.16,0,0,0,17.65-7.55"/><polygon class="cls-4" points="47.6 9.15 48.25 22.73 40.9 11.29 47.6 9.15"/></g></g></svg>